<svg width="18" height="18" viewBox="0 0 18 18" fill="none" xmlns="http://www.w3.org/2000/svg">
<path d="M16.5423 17.577L10.2616 11.296C9.76155 11.7088 9.18655 12.0319 8.53655 12.2652C7.88655 12.4986 7.21414 12.6152 6.5193 12.6152C4.81014 12.6152 3.36364 12.0235 2.1798 10.84C0.995969 9.65649 0.404053 8.21032 0.404053 6.50149C0.404053 4.79282 0.995803 3.34615 2.1793 2.16149C3.3628 0.976985 4.80897 0.384735 6.5178 0.384735C8.22647 0.384735 9.67314 0.976651 10.8578 2.16048C12.0423 3.34432 12.6346 4.79082 12.6346 6.49999C12.6346 7.21415 12.5147 7.89624 12.2751 8.54624C12.0352 9.19624 11.7153 9.76157 11.3153 10.2422L17.5961 16.523L16.5423 17.577ZM6.5193 11.1155C7.8078 11.1155 8.89914 10.6683 9.7933 9.77398C10.6876 8.87982 11.1348 7.78849 11.1348 6.49999C11.1348 5.21149 10.6876 4.12015 9.7933 3.22598C8.89914 2.33165 7.8078 1.88449 6.5193 1.88449C5.2308 1.88449 4.13947 2.33165 3.2453 3.22598C2.35097 4.12015 1.9038 5.21149 1.9038 6.49999C1.9038 7.78849 2.35097 8.87982 3.2453 9.77398C4.13947 10.6683 5.2308 11.1155 6.5193 11.1155Z" fill="#015B7C"/>
</svg>
